<svg xmlns="http://www.w3.org/2000/svg" viewBox="0 0 807.73 97.93" width="793.1" height="232.02"><defs><style>.cls-1,.cls-2{fill:#222;}.cls-2{fill-rule:evenodd;}</style></defs><g id="Layer_2" data-name="Layer 2"><g id="Layer_1-2" data-name="Layer 1"><path class="cls-1" d="M121.75,15.5h25.1c15.36,0,23.6,8.63,23.6,21.41,0,9.08-4.88,14.46-12.76,17.63l15.21,27.9H159.37l-15-27.9H133.87v27.9H121.75Zm23.3,29c9,0,13-2.52,13-9.42,0-5.8-4.05-9.42-13.1-9.42H133.87V44.47Z"/><path class="cls-1" d="M223.58,56.55c0-15.33,9.28-25.95,24-25.95,12.25,0,20.75,7.15,21.57,18H257.83c-.91-4.84-4.41-8.5-10.1-8.5-7.29,0-12.16,6.08-12.16,16.21s4.77,16.44,12.16,16.44c5.2,0,9.09-3.1,10.1-8.49h11.31c-.85,10.65-8.89,18.14-21.51,18.14C232.63,82.44,223.58,71.75,223.58,56.55Z"/><path class="cls-1" d="M272.11,56.55c0-15.56,9.35-25.95,24.06-25.95S320.23,41,320.23,56.55s-9.35,25.89-24.06,25.89S272.11,72.07,272.11,56.55Zm36.12,0c0-9.19-4-16.54-12-16.54s-12.13,7.35-12.13,16.54S288.1,73,296.24,73,308.23,65.7,308.23,56.52Z"/><path class="cls-1" d="M323.63,32.23H335.1V40.6h.52A12.54,12.54,0,0,1,348,31.51a27.89,27.89,0,0,1,4.25.33V42.72a23,23,0,0,0-5.49-.68c-6.5,0-11.31,4.51-11.31,10.88V82.44H323.63Z"/><path class="cls-1" d="M353.39,57.4c0-16.74,9.12-25.82,20.72-25.82,8.86,0,12.55,5.33,14.35,9H389v-25h11.86V82.44H389.18V74.53h-.72c-1.86,3.66-5.72,7.91-14.35,7.91C362.28,82.44,353.39,73.94,353.39,57.4Zm35.79-.07c0-9.74-4.19-16-11.8-16-7.88,0-11.93,6.71-11.93,16s4.12,16.28,11.93,16.28C384.93,73.61,389.18,67.07,389.18,57.33Z"/><path class="cls-1" d="M456.76,57.4c0-16.74,9.11-25.82,20.72-25.82,8.86,0,12.55,5.33,14.35,9h.49v-25h11.86V82.44H492.55V74.53h-.72c-1.87,3.66-5.76,7.86-14.38,7.86C465.61,82.39,456.76,73.94,456.76,57.4Zm35.79-.07c0-9.74-4.19-16-11.8-16-7.88,0-11.93,6.71-11.93,16s4.11,16.28,11.93,16.28C488.3,73.61,492.55,67.07,492.55,57.33Z"/><path class="cls-1" d="M531,15.5h42.89V25.66H543.12V44.38h27.81V54.54H543.12v27.9H531Z"/><path class="cls-1" d="M608.63,32.23h11.83V82.44H609V73.51h-.52c-2.29,5.62-7.59,8.93-15.11,8.93-9.87,0-16.73-6.18-16.73-18.24v-32h11.83V62.37c0,6.37,3.79,10.39,9.48,10.39,5.23,0,10.69-3.79,10.69-11.44Z"/><path class="cls-1" d="M653.09,41.38h-9.9v26c0,4.77,2.38,5.81,5.36,5.81A15,15,0,0,0,652,72.7L654,82a24,24,0,0,1-7,1.17c-8.89.26-15.75-4.38-15.69-13.82V41.38h-7.12V32.23h7.12v-12h11.84v12h9.9Z"/><path class="cls-1" d="M690.39,32.23h11.83V82.44H690.75V73.51h-.52c-2.29,5.62-7.58,8.93-15.1,8.93-9.87,0-16.74-6.18-16.74-18.24v-32h11.83V62.37c0,6.37,3.8,10.39,9.48,10.39,5.23,0,10.69-3.79,10.69-11.44Z"/><path class="cls-1" d="M709.77,32.23h11.48V40.6h.52a12.54,12.54,0,0,1,12.39-9.09,27.89,27.89,0,0,1,4.25.33V42.72a23.07,23.07,0,0,0-5.49-.68c-6.51,0-11.31,4.51-11.31,10.88V82.44H709.77Z"/><path class="cls-1" d="M785.47,25.65A11.13,11.13,0,1,1,796.6,36.79,11.13,11.13,0,0,1,785.47,25.65Zm20.19,0a9.06,9.06,0,1,0-9.06,9.06A9.05,9.05,0,0,0,805.66,25.65Zm-12.83-5.26h4.93a3.15,3.15,0,0,1,3.2,3.22,3.29,3.29,0,0,1-1.77,3l2.19,4.08h-2L797.45,27h-2.82v3.69h-1.8Zm4.35,5.18a1.83,1.83,0,0,0,1.83-2,1.68,1.68,0,0,0-1.79-1.81h-2.59v3.77Z"/><path class="cls-1" d="M738.43,57.63c0-15.5,9.39-26.05,23.77-26.05,12.35,0,22.94,7.74,22.94,25.36v3.63h-35c.1,8.6,5.16,12.65,12.81,12.65,5.1,0,9-1.24,10.62-5.49h11.54c-2.09,8.72-9.73,14.71-22.32,14.71C747.68,82.44,738.43,73.38,738.43,57.63Zm35.37-5c-.06-6.83-4.64-11.8-11.44-11.8-7.06,0-11.8,5.4-12.16,11.8Z"/><path class="cls-1" d="M405.92,57.63c0-15.5,9.38-26.05,23.76-26.05,12.36,0,22.95,7.74,22.95,25.36v3.63h-35c.1,8.6,5.17,12.65,12.81,12.65,5.1,0,9-1.24,10.63-5.49h11.54c-2.1,8.72-9.73,14.71-22.33,14.71C415.17,82.44,405.92,73.38,405.92,57.63Zm35.36-5c-.06-6.83-4.64-11.8-11.44-11.8-7.06,0-11.8,5.4-12.16,11.8Z"/><path class="cls-1" d="M173.68,57.63c0-15.5,9.38-26.05,23.76-26.05,12.36,0,22.95,7.74,22.95,25.36v3.63h-35c.1,8.6,5.17,12.65,12.82,12.65,5.1,0,9-1.24,10.62-5.49h11.54c-2.09,8.72-9.73,14.71-22.33,14.71C182.93,82.44,173.68,73.38,173.68,57.63Zm35.37-5c-.07-6.83-4.65-11.8-11.44-11.8-7.06,0-11.8,5.4-12.16,11.8Z"/><path class="cls-2" d="M52.45,41.93a7.5,7.5,0,1,0,7.49,7.5h0A7.49,7.49,0,0,0,52.45,41.93Z"/><path class="cls-2" d="M96.88,41.93a7.5,7.5,0,1,0,7.49,7.5h0A7.49,7.49,0,0,0,96.88,41.93Z"/><path class="cls-2" d="M7.49,41.93a7.5,7.5,0,1,0,7.5,7.5h0A7.5,7.5,0,0,0,7.49,41.93Z"/><path class="cls-2" d="M46,91.62h0V69.54h0a6.18,6.18,0,1,1,12.35,0h0V91.62h0v.13a6.18,6.18,0,1,1-12.35,0Z"/><path class="cls-2" d="M68.36,80.32h0V18.53h0a6.18,6.18,0,0,1,12.35,0h0V80.32h0v.13a6.18,6.18,0,1,1-12.35,0Z"/><path class="cls-2" d="M23.66,80.32h0V18.53a6.18,6.18,0,0,1,12.36,0V80.32h0v.13a6.18,6.18,0,0,1-12.36,0Z"/><path class="cls-2" d="M46,28.26h0V6.18h0a6.18,6.18,0,1,1,12.35,0h0V28.26h0v.13a6.18,6.18,0,1,1-12.35,0Z"/></g></g></svg>
