<svg xmlns="http://www.w3.org/2000/svg" viewBox="0 0 793.1 232.02"><defs><style>.cls-1{fill:#053388;}.cls-2{fill:#0070cd;}.cls-3{fill:#272727;}.cls-4{fill:#00b450;}</style></defs><title>Asset 1</title><g id="Layer_2" data-name="Layer 2"><g id="Layer_1-2" data-name="Layer 1"><path class="cls-1" d="M83.35,118.92q0,35.24,0,70.47c0,6.46-2.81,11.29-8.75,13.88-5.57,2.42-10.8,1.32-15.29-2.72-3.76-3.37-4.62-7.85-4.61-12.71q.07-54,0-108c0-10.33,0-20.66,0-31,.05-9.46,5.78-15.94,14.1-16.09,8.53-.15,14.51,6.45,14.52,16.14Q83.38,83.93,83.35,118.92Z"/><path class="cls-2" d="M159.16,118.33c0-23.49-.07-47,0-70.48,0-10.23,8-16.64,17.52-14.36,6.41,1.54,10.55,7.1,10.57,14.5.05,16.83,0,33.66,0,50.49q0,45.49,0,91c0,5.82-2.34,10.31-7.51,13.13a13.26,13.26,0,0,1-14.22-.54c-4.79-3-6.48-7.64-6.46-13.23C159.21,165.32,159.16,141.83,159.16,118.33Z"/><path class="cls-3" d="M290.82,107.39c-1.21-2-.91-3.91-.91-5.72q0-45,0-90c0-6.8.63-7.55,7.42-7.4,11,.24,22-1.2,32.91.88,14.48,2.77,21.57,11,22.16,24.78.74,17.35-5,26.14-19.91,30.71a5.88,5.88,0,0,0-1.12.8C338,74.17,344.68,87,351.49,99.68c1.91,3.55,1.66,6.32-1.75,8.59-3.84,2.55-6.89,1.52-9.53-3.5C334.34,93.58,328.6,82.32,322.8,71.1c-1.44-2.79-2.91-5.56-4.34-8.28H302.13c0,7.09,0,14,0,20.95,0,5.83,0,11.67,0,17.5C302.11,109.28,298.13,111.46,290.82,107.39Zm11.64-91.86v36.9c7.46,0,14.62.32,21.74-.08,10.12-.57,15.8-6.93,16.15-17.35.38-11.17-4.65-18.46-14.4-19.33C318.22,15,310.39,15.53,302.45,15.53Z"/><path class="cls-3" d="M781.29,100.81c-10.6,10.24-20.88,12.49-30.63,6.57-6.81-4.13-11.72-10.07-13.24-18a73.24,73.24,0,0,1,0-28.76,25.54,25.54,0,0,1,27-20.26c6.57.45,11.45,3.94,16.36,10V3c3.25-3.46,6.38-3.48,9.48-2.37s2.74,4.17,2.74,6.81q0,47.46,0,94.92c0,2.85-.33,5.28-3.47,6.44a6.33,6.33,0,0,1-6.54-1C780.88,106.08,781.75,103.52,781.29,100.81Zm-.38-24.29a104.47,104.47,0,0,0-.06-10.47C779.93,56.86,773,50.84,764,51.2c-8.06.32-15.2,7.5-15.55,16a137.42,137.42,0,0,0,.05,16.46,16.56,16.56,0,0,0,11.34,15c6.49,2.42,11.81-.05,16.79-4.48C782.34,89.16,780.82,82.7,780.92,76.52Z"/><path class="cls-3" d="M657.4,2.74V106.1c-4.21,4.24-6.08,4.34-10.87.51l-.54-6.19c-3.71,4.1-7.46,7.3-12.27,8.89-14.36,4.75-30.79-6.53-32.24-22.63a121.88,121.88,0,0,1,0-23c1.07-10.64,7.18-18.35,17.18-22s18.68-1.15,25.56,7.13c.16.19.49.24,1.27.59,0-14.18,0-28.09,0-42,0-2.67-.43-5.64,2.81-6.76C651.41-.39,654.56-.52,657.4,2.74ZM645.5,76.68c0-3.63.08-6.62,0-9.61-.28-8.85-6.79-15.55-15.33-15.87s-16.33,6.39-16.85,15a128.16,128.16,0,0,0,.07,18.44c.58,6.87,4.67,11.67,11.09,14.06,6.05,2.26,11.18.15,16.09-3.77C647.07,89.72,645.25,82.69,645.5,76.68Z"/><path class="cls-3" d="M347.68,136.64H302.36V173h23c3.45,2.32,3.67,4.92,2.74,7.6s-3.38,2.8-5.82,2.78c-6.48,0-13,0-20.15,0,0,5.13,0,10,0,15,0,8.17,0,16.33,0,24.5,0,2.58.8,5.65-2.32,7.07a8.09,8.09,0,0,1-9.53-1.41V128.25c2.29-2.76,5-2.64,7.66-2.64q22.5,0,45,0c2.47,0,5.16-.47,6.53,2.42S350.38,133.51,347.68,136.64Z"/><path class="cls-1" d="M135.39,192.24c0,8.15.07,16.31,0,24.46-.09,8.36-5.88,14.53-13.71,14.78-8.21.26-14.65-5.58-14.78-14.18-.24-16.8-.21-33.61,0-50.41.1-8.74,6.22-14.59,14.44-14.51s14,6.23,14.06,14.91C135.45,175.6,135.39,183.92,135.39,192.24Z"/><path class="cls-2" d="M135.28,43.71c0,8.16,0,16.32,0,24.47-.06,9.07-5.89,15.26-14.24,15.23-8.16,0-13.93-6-14-14.92q-.19-24.47,0-48.94c.07-9.14,6.06-15.19,14.43-15,8,.17,13.74,6.38,13.8,15.19C135.32,27.72,135.28,35.71,135.28,43.71Z"/><path class="cls-3" d="M586.68,200.31c-2.87,16.46,12.16,24.54,27,20.4,2.68-.75,5.15-2.27,7.66-3.56s4.83-1.09,6.5,1.44a4.74,4.74,0,0,1-.79,6.71,20.6,20.6,0,0,1-3.2,2.36c-11.53,7-30.64,5.38-40.8-3.51a24.3,24.3,0,0,1-8.67-18.39c-.13-6-.17-12,0-18,.39-14.53,13.95-26.55,29.27-26.07s27,12.18,26.83,27.06c-.1,8.1-2.94,11.25-11.11,11.45-9.49.23-19,.08-28.48.09ZM618,191.22c2.09-6.1.12-12.14-5-16.33a16.81,16.81,0,0,0-19.17-1.08c-6.31,4-8.59,10-6.7,18.3,8.91,0,17.88,0,26.85,0A21.16,21.16,0,0,0,618,191.22Z"/><path class="cls-3" d="M682.64,78.56c-1.23,11.23,3.11,18.15,12.43,20.84,9.08,2.62,17-.28,24.3-4.88,5.77,2.4,7.17,6.26,3.32,9.37-9.69,7.83-20.89,8-32.22,4.89-10.39-2.85-17.81-9.49-19.67-20.37a84.3,84.3,0,0,1-.11-25.91c2-14,16.64-23.68,32.12-22A26.64,26.64,0,0,1,726.38,68c-.28,7.22-3.26,10.39-10.47,10.49C704.94,78.67,694,78.56,682.64,78.56ZM713.91,70c1.91-7.08-.18-13.11-5.66-17-5.68-4.06-11.8-4.26-17.89-1C683.77,55.4,681.5,61,682.65,70Z"/><path class="cls-3" d="M486.3,74.85c-.88-10,.71-19.22,8.51-26.49,8.93-8.31,19.25-10.46,30.39-6s17.36,13.06,17.9,25.28c.22,5,.18,10,0,15a29,29,0,0,1-29.41,27.79c-14.94-.31-27.27-13.17-27.4-28.6C486.29,79.51,486.3,77.18,486.3,74.85Zm12-.11c0,2.83-.08,5.66,0,8.48.26,8,6.73,15.4,14.21,16.23A16.35,16.35,0,0,0,530.37,86.8a56,56,0,0,0,0-23.26c-1.78-8.16-9.81-13.22-18.1-12.19-7.36.91-13.61,8-13.89,15.92C498.26,69.75,498.33,72.25,498.34,74.74Z"/><path class="cls-3" d="M373.55,78.6c-.72,11.8,3.52,18.21,12.86,20.87,9.12,2.6,17-.64,24.26-5,5.7,2.78,6.85,6.54,2.91,9.62-9.79,7.63-21,7.83-32.29,4.61-10.18-2.89-17.42-9.41-19.36-20.08a82.65,82.65,0,0,1-.2-25.9c2-14.28,16.89-24.1,32.44-22.22a26.61,26.61,0,0,1,23.25,27.83c-.31,6.92-3.27,10-10.23,10.19-5.66.17-11.33.07-17,.08Zm30.84-8.42c2.73-5.68,1.22-11.52-3.73-16.12a16.34,16.34,0,0,0-19.45-2c-6.59,3.82-9,9.92-7.28,18.15Z"/><path class="cls-3" d="M502.35,165.88c2.52-3.14,5.3-4,8.71-2.78s3.31,4.09,3.3,7c0,11.17,0,22.33,0,33.5a28.44,28.44,0,0,1-56.88,0c-.06-12.49,0-25,0-37.29,4.17-4.92,7.1-5,12-.32,0,12.5-.13,25.32,0,38.13.16,11.43,10.82,19.49,21.15,16.27,6.83-2.13,11.66-8.95,11.71-16.88C502.41,191,502.35,178.54,502.35,165.88Z"/><path class="cls-3" d="M386.33,165.75c2.84-3.11,5.64-3.87,9-2.53s3,4.37,3,7.18c0,11,.05,22,0,33a28.44,28.44,0,1,1-56.89-.11c0-12.49,0-25,0-37.24,4.54-4.61,7-4.66,12-.1,0,12.4-.07,25.2,0,38,.06,7.72,5.21,14.58,12.13,16.53,10.47,3,20.59-5.13,20.73-16.78C386.44,191,386.33,178.39,386.33,165.75Z"/><path class="cls-3" d="M425.62,134c0,4.53,0,9.34,0,14.16,0,4.62,0,9.24,0,14.26h18.87c3.57,3,3.73,5.79.85,9.42H426.94c-1.77,1.59-1.29,3-1.29,4.26,0,10.65-.07,21.3,0,32,.05,9.31,2.9,12.09,12.31,12.27,1.5,0,3,0,4.49,0a4.59,4.59,0,0,1,4.77,4.75c.16,3-1.27,5.34-4.51,5.5-5.81.3-11.64.41-17.23-1.76-8.26-3.2-11.62-9.86-11.7-18-.25-24.79-.1-49.59-.15-74.38,0-2.48.95-4.19,3.26-5C420.18,130.27,423.07,130.86,425.62,134Z"/><path class="cls-3" d="M473.13,94.16c6.39,3.5,6.78,7.48,1.66,11.29-18,13.4-44.45,2.6-46.88-19.39a90.13,90.13,0,0,1,.4-24.39c1.74-10.64,8.6-18.15,19.17-20.41,9.17-2,18.26-1.74,26.41,3.7,5.22,3.49,4.78,7.8-1.19,11.22-4.66-1.82-9-5-14.64-5.07-12.09-.12-18.3,5.61-18.44,17.7,0,4,0,8,0,12,0,15.83,12.43,23.59,26.91,16.83C468.76,96.58,470.91,95.33,473.13,94.16Z"/><path class="cls-3" d="M568.81,106.16c-3,3.14-5.82,3.91-9.16,2.41-3.15-1.42-2.81-4.17-2.81-6.84,0-17.5,0-35,0-52.5,0-4.06-.15-7.92,5.51-8,4.61-.09,5.76,1.37,6,8a8.74,8.74,0,0,0,.38,1.39c3.27-3.8,6.57-7.23,11.14-9s9.15-1.22,13.61-1c3,2,3.71,4.58,2.58,7.52-1,2.74-3.52,3.11-6.2,3.18-13.73.35-20.81,7.56-21,21.62C568.67,84,568.81,95.13,568.81,106.16Z"/><path class="cls-3" d="M530.43,228V165c3.59-3.07,7-3.29,10.34-.4,1.28,2.33.37,4.75.83,7,1.36.46,1.54-.86,2.08-1.5,5.16-6.25,11.82-8.82,19.83-8.5,3.8.15,6.11,1.68,6.14,5.58s-2.3,5.82-6.12,5.32c-11.33-1.5-21.83,7.91-21.37,21.37,0,1.33,0,2.66,0,4,0,8.49-.05,17,0,25.47,0,2.79,0,5.57-3,6.75S532.95,231.14,530.43,228Z"/><path class="cls-2" d="M224.84,135.46a17.19,17.19,0,1,1,17.35-17A17.23,17.23,0,0,1,224.84,135.46Z"/><path class="cls-1" d="M17.12,135.59A17.14,17.14,0,0,1,0,118a17.3,17.3,0,0,1,34.6.43A17,17,0,0,1,17.12,135.59Z"/><path class="cls-4" d="M138.57,118.2a17.12,17.12,0,1,1-34.24,0,17.12,17.12,0,1,1,34.24,0Z"/></g></g></svg>